<?xml version="1.0" encoding="utf-8"?>
<!-- Generator: Adobe Illustrator 23.0.6, SVG Export Plug-In . SVG Version: 6.00 Build 0)  -->
<svg version="1.1" id="Layer_1" xmlns="http://www.w3.org/2000/svg" xmlns:xlink="http://www.w3.org/1999/xlink" x="0px" y="0px"
	 viewBox="0 0 123.13 42.84" style="enable-background:new 0 0 123.13 42.84;" xml:space="preserve">
<style type="text/css">
	.st0{fill:#6D6E71;}
</style>
<g>
	<g>
		<path d="M3.44,18.29H0V14.7h3.44c2.2,0,4-1.79,4-4V7.26h3.59v3.44C11.03,14.89,7.63,18.29,3.44,18.29z"/>
		<path class="st0" d="M11.03,25.73H7.44v-3.44c0-4.18,3.4-7.59,7.59-7.59h3.44v3.59h-3.44c-2.2,0-4,1.79-4,4V25.73z"/>
	</g>
	<g>
		<g>
			<path d="M33.74,32.99H29.5V0h11.24c2.79,0,5.21,0.93,7.26,2.79c2.04,1.86,3.06,4.2,3.06,7.03c0,2.83-1.02,5.17-3.06,7.03
				c-2.04,1.86-4.46,2.79-7.26,2.79h-7V32.99z M33.74,15.57h7.1c1.78,0,3.21-0.6,4.28-1.8c1.08-1.2,1.61-2.52,1.61-3.96
				c0-1.44-0.54-2.76-1.61-3.96c-1.08-1.2-2.5-1.8-4.28-1.8h-7.1V15.57z"/>
			<path d="M51.71,32.99L64.15,0h4.79l12.44,32.99h-4.7l-3.18-8.94H59.63l-3.23,8.94H51.71z M61.06,20.09h10.96L66.64,5.21h-0.18
				L61.06,20.09z"/>
			<path d="M87.04,32.99V0h4.24v32.99H87.04z"/>
			<path d="M100.27,32.99V0h11.24c2.79,0,5.21,0.93,7.26,2.79c2.04,1.86,3.06,4.2,3.06,7.03c0,2.3-0.75,4.34-2.26,6.1
				c-1.51,1.77-3.38,2.88-5.62,3.34l-0.09,0.14l9.26,13.41v0.18h-5.02l-8.89-13.36h-4.7v13.36H100.27z M104.51,15.66h6.82
				c1.69,0,3.14-0.55,4.35-1.66c1.21-1.11,1.82-2.5,1.82-4.19c0-1.44-0.54-2.76-1.61-3.96c-1.08-1.2-2.5-1.8-4.28-1.8h-7.1V15.66z"
				/>
		</g>
	</g>
</g>
</svg>
